HIERARCHY
ROOT Hips
{
	OFFSET 0.000000 0.000000 0.000000 
	CHANNELS 6 Xposition Yposition Zposition Zrotation Yrotation Xrotation
	JOINT LeftUpLeg
	{
		OFFSET 1.363060 -1.794630 0.839290 
		CHANNELS 3 Zrotation Yrotation Xrotation
		JOINT LeftLeg
		{
			OFFSET 2.448110 -6.726130 0.000000 
			CHANNELS 3 Zrotation Yrotation Xrotation
			JOINT LeftFoot
			{
				OFFSET 2.562200 -7.039590 0.000000 
				CHANNELS 3 Zrotation Yrotation Xrotation
				JOINT LeftToeBase
				{
					OFFSET 0.157640 -0.433110 2.322550 
					CHANNELS 3 Zrotation Yrotation Xrotation
					End Site
					{
						OFFSET 0.000000 0.000000 0.000000 
					}
				}
			}
		}
	}
	JOINT RightUpLeg
	{
		OFFSET -1.305520 -1.794630 0.839290 
		CHANNELS 3 Zrotation Yrotation Xrotation
		JOINT RightLeg
		{
			OFFSET -2.542530 -6.985550 0.000000 
			CHANNELS 3 Zrotation Yrotation Xrotation
			JOINT RightFoot
			{
				OFFSET -2.568260 -7.056230 0.000000 
				CHANNELS 3 Zrotation Yrotation Xrotation
				JOINT RightToeBase
				{
					OFFSET -0.164730 -0.452590 2.363150 
					CHANNELS 3 Zrotation Yrotation Xrotation
					End Site
					{
						OFFSET 0.000000 0.000000 0.000000 
					}
				}
			}
		}
	}
	JOINT Spine
	{
		OFFSET 0.028270 2.035590 -0.193380 
		CHANNELS 3 Zrotation Yrotation Xrotation
		JOINT Spine1
		{
			OFFSET 0.056720 2.048850 -0.042750 
			CHANNELS 3 Zrotation Yrotation Xrotation
			JOINT Neck1
			{
				OFFSET -0.054170 1.746240 0.172020 
				CHANNELS 3 Zrotation Yrotation Xrotation
				JOINT Head
				{
					OFFSET 0.104070 1.761360 -0.123970 
					CHANNELS 3 Zrotation Yrotation Xrotation
					End Site
					{
						OFFSET 0.000000 0.000000 0.000000 
					}
				}
			}
			JOINT LeftArm
			{
				OFFSET 3.362410 1.200890 -0.311210 
				CHANNELS 3 Zrotation Yrotation Xrotation
				JOINT LeftForeArm
				{
					OFFSET 4.983000 -0.000000 -0.000000 
					CHANNELS 3 Zrotation Yrotation Xrotation
					JOINT LeftHand
					{
						OFFSET 3.483560 -0.000000 -0.000000 
						CHANNELS 3 Zrotation Yrotation Xrotation
						JOINT LeftHandIndex1
						{
							OFFSET 0.715260 -0.000000 -0.000000 
							CHANNELS 3 Zrotation Yrotation Xrotation
							End Site
							{
								OFFSET 0.000000 0.000000 0.000000 
							}
						}
					}
				}
			}
			JOINT RightArm
			{
				OFFSET -3.136600 1.374050 -0.404650 
				CHANNELS 3 Zrotation Yrotation Xrotation
				JOINT RightForeArm
				{
					OFFSET -5.241900 -0.000000 -0.000000 
					CHANNELS 3 Zrotation Yrotation Xrotation
					JOINT RightHand
					{
						OFFSET -3.444170 -0.000000 -0.000000 
						CHANNELS 3 Zrotation Yrotation Xrotation
						JOINT RightHandIndex1
						{
							OFFSET -0.622530 -0.000000 -0.000000 
							CHANNELS 3 Zrotation Yrotation Xrotation
							End Site
							{
								OFFSET 0.000000 0.000000 0.000000 
							}
						}
					}
				}
			}
		}
	}
}
MOTION
Frames: 7
Frame Time: 0.041667
-11.807302 8.219998 -20.845930 164.751789 -13.872111 -158.305442 -6.288748 12.174874 -121.110967 31.561776 15.879707 127.774731 0.326542 -32.428439 20.819372 0.177300 2.712400 7.479000 57.078235 -19.779620 -109.628636 -33.469679 -13.511162 136.237683 -0.335102 35.516025 -10.144924 -1.276700 7.160900 -20.193000 2.159897 -5.619959 2.500206 0.531910 -4.488419 5.676261 -9.345524 9.985841 -5.327159 -3.955800 3.144300 3.578900 73.011433 -64.934145 -121.852372 5.952020 -20.590265 -3.070030 -3.818378 -2.529255 27.509878 -7.125000 0.000000 0.000000 35.433314 27.576751 11.787763 -0.842594 11.803291 -3.532945 6.912807 -3.160765 31.812235 7.125000 0.000000 0.000000 
-11.910697 8.366977 -20.944228 164.673383 -13.637111 -156.930340 -6.935245 11.611389 -121.153100 31.471396 15.945261 127.425843 0.299617 -32.575086 20.157843 0.207400 2.932000 8.089500 56.381199 -19.033016 -109.822628 -33.424547 -13.545066 135.997011 -0.589743 35.088681 -11.040396 -1.243000 7.069300 -19.921000 2.205365 -5.419704 2.440806 0.453959 -4.337758 5.080173 -9.439413 9.755117 -5.701674 -3.970100 3.022900 3.382900 72.326868 -66.600675 -118.566729 6.917810 -21.207127 -3.355725 -3.621507 -2.573064 24.649099 -7.125000 0.000000 0.000000 34.619281 27.262414 10.883576 -0.519439 11.422434 -3.433437 6.965110 -3.195920 31.601561 7.125000 0.000000 0.000000 
-12.013467 8.512500 -21.038261 164.623864 -13.372325 -155.620993 -7.466452 11.006357 -121.089154 31.376104 16.015403 127.044510 0.274308 -32.736761 19.390973 0.234100 3.114100 8.596500 55.600742 -18.200132 -110.006428 -33.376423 -13.580711 135.752680 -0.882852 34.455758 -11.963019 -1.248200 7.083400 -19.962700 2.247587 -5.193876 2.390121 0.386684 -4.185509 4.481340 -9.504693 9.508620 -6.052663 -3.968600 2.896900 3.186400 71.303872 -68.173017 -114.892635 7.618786 -21.593134 -3.521942 -3.507797 -2.604878 21.932929 -7.125000 0.000000 0.000000 33.792281 26.947790 9.705490 -0.167236 11.005210 -3.333722 7.011257 -3.252134 31.584730 7.125000 0.000000 0.000000 
-12.115510 8.655838 -21.128757 164.621299 -13.063665 -154.364316 -7.886686 10.397392 -120.976029 31.280105 16.087305 126.647176 0.256566 -32.893270 18.539933 0.256000 3.255200 8.990200 54.727846 -17.247347 -110.161276 -33.324968 -13.619290 135.504216 -1.191854 33.659203 -12.859616 -1.281600 7.174000 -20.231900 2.290947 -4.943623 2.349524 0.343264 -4.035232 3.834310 -9.533546 9.260422 -6.390094 -3.952800 2.772000 2.989500 69.728596 -69.897876 -110.895710 8.101780 -21.736560 -3.585905 -3.459133 -2.584090 19.926346 -7.125000 0.000000 0.000000 32.971596 26.639414 8.172219 0.216151 10.541645 -3.232717 7.039613 -3.344129 31.882034 7.125000 0.000000 0.000000 
-12.216097 8.797408 -21.216653 164.677579 -12.723736 -153.178988 -8.200605 9.807475 -120.812203 31.185535 16.159131 126.242761 0.248480 -33.038724 17.616765 0.272700 3.359100 9.280100 53.784418 -16.222483 -110.261789 -33.268766 -13.664644 135.239983 -1.498244 32.745812 -13.702294 -1.340000 7.329400 -20.694900 2.337491 -4.680586 2.322242 0.330226 -3.893529 3.166814 -9.527429 9.030096 -6.705659 -3.922100 2.656500 2.802600 67.599745 -71.743220 -106.763069 8.406784 -21.728920 -3.584266 -3.453609 -2.501151 18.783946 -7.125000 0.000000 0.000000 32.180219 26.390529 6.179362 0.632622 10.017318 -3.134752 7.040580 -3.485173 32.629259 7.125000 0.000000 0.000000 
-12.315435 8.937833 -21.302677 164.798458 -12.354340 -152.074876 -8.424665 9.254393 -120.596973 31.093769 16.229497 125.837595 0.254600 -33.158514 16.631548 0.285000 3.433300 9.487500 52.782054 -15.157365 -110.289777 -33.207414 -13.718818 134.954289 -1.785270 31.768111 -14.461808 -1.417500 7.529600 -21.294100 2.386893 -4.417785 2.309027 0.337915 -3.763686 2.477580 -9.510616 8.831393 -7.017934 -3.893100 2.555400 2.622400 64.848776 -73.775398 -102.712997 8.583966 -21.627336 -3.551122 -3.487521 -2.334019 18.708425 -7.125000 0.000000 0.000000 31.435280 26.214692 3.772656 1.056469 9.453558 -3.045026 7.015277 -3.667691 33.803246 7.125000 0.000000 0.000000 
-12.413421 9.077635 -21.386933 164.991893 -11.957920 -151.064323 -8.567228 8.756105 -120.321143 31.004919 16.297591 125.432879 0.276521 -33.248150 15.585030 0.291700 3.473200 9.599200 51.728543 -14.065963 -110.222571 -33.139882 -13.783525 134.641471 -2.045718 30.757785 -15.130142 -1.508800 7.757800 -21.980700 2.434152 -4.170148 2.308263 0.349653 -3.647068 1.810423 -9.502396 8.682137 -7.337564 -3.873400 2.477600 2.447500 61.617861 -75.810921 -98.948528 8.636108 -21.471032 -3.499307 -3.545288 -2.112691 19.493015 -7.125000 0.000000 0.000000 30.748441 26.154933 1.101450 1.455983 8.882418 -2.964449 6.950438 -3.882928 35.287119 7.125000 0.000000 0.000000 
